<?xml version="1.0" encoding="UTF-8"?>
<!DOCTYPE svg PUBLIC "-//W3C//DTD SVG 1.1//EN" "http://www.w3.org/Graphics/SVG/1.1/DTD/svg11.dtd">
<svg xmlns="http://www.w3.org/2000/svg" version="1.1" width="500px" height="500px" style="shape-rendering:geometricPrecision; text-rendering:geometricPrecision; image-rendering:optimizeQuality; fill-rule:evenodd; clip-rule:evenodd" xmlns:xlink="http://www.w3.org/1999/xlink">
<g><path style="opacity:1" fill="#321219" d="M -0.5,-0.5 C 166.167,-0.5 332.833,-0.5 499.5,-0.5C 499.5,166.167 499.5,332.833 499.5,499.5C 332.833,499.5 166.167,499.5 -0.5,499.5C -0.5,332.833 -0.5,166.167 -0.5,-0.5 Z"/></g>
<g><path style="opacity:1" fill="#e4dedf" d="M 234.5,27.5 C 241.683,29.422 248.683,31.922 255.5,35C 271.457,50.7851 285.624,67.9518 298,86.5C 298.667,88.5 299.333,90.5 300,92.5C 300.157,98.8892 299.49,105.223 298,111.5C 295.453,125.917 290.787,139.584 284,152.5C 274.994,165.17 266.994,178.504 260,192.5C 251.417,213.757 257.25,229.591 277.5,240C 297.208,258.203 301.708,279.703 291,304.5C 281.775,317.058 270.609,327.558 257.5,336C 240.984,344.176 226.817,355.343 215,369.5C 207.657,380.698 204.157,393.032 204.5,406.5C 202.482,404.303 201.315,401.636 201,398.5C 198.672,379.651 204.839,364.151 219.5,352C 230.977,343.185 242.977,335.185 255.5,328C 266.36,320.839 275.527,312.006 283,301.5C 289.513,288.474 290.179,275.14 285,261.5C 282.752,258.672 280.752,255.672 279,252.5C 271.063,246.236 263.396,239.569 256,232.5C 249.435,222.661 247.769,211.994 251,200.5C 253.01,190.485 256.677,181.152 262,172.5C 270.579,161.177 277.745,149.011 283.5,136C 283.333,135.167 283.167,134.333 283,133.5C 274.891,145.292 264.724,154.459 252.5,161C 262.667,148.833 272.833,136.667 283,124.5C 288.158,113.696 291.158,102.363 292,90.5C 284,79.8333 276,69.1667 268,58.5C 265.5,56 263,53.5 260.5,51C 254.01,48.5016 248.01,45.1683 242.5,41C 244.326,40.7083 246.159,40.875 248,41.5C 248.833,41.1667 249.667,40.8333 250.5,40.5C 247.26,37.0449 243.26,34.8783 238.5,34C 236.768,32.0281 235.435,29.8614 234.5,27.5 Z"/></g>
<g><path style="opacity:1" fill="#e5dedf" d="M 219.5,232.5 C 212.483,222.797 207.316,212.131 204,200.5C 196.21,193.914 193.21,185.581 195,175.5C 198.039,170.625 200.872,165.625 203.5,160.5C 201.286,152.425 198.286,144.758 194.5,137.5C 193.612,132.387 191.612,127.72 188.5,123.5C 177.13,144.703 172.296,167.37 174,191.5C 195.221,208.291 207.888,229.957 212,256.5C 211.417,258.002 210.584,259.335 209.5,260.5C 200.062,229.904 182.062,205.737 155.5,188C 138.925,179.399 121.759,172.232 104,166.5C 103.5,166.833 103,167.167 102.5,167.5C 103.392,170.284 104.558,172.95 106,175.5C 110.908,194.84 115.908,214.173 121,233.5C 127.39,249.788 136.89,263.955 149.5,276C 158.735,283.201 168.235,290.034 178,296.5C 177.973,298.417 177.139,300.084 175.5,301.5C 174.635,302.583 173.635,302.749 172.5,302C 157.655,290.16 141.989,279.494 125.5,270C 102.485,261.926 78.8187,258.76 54.5,260.5C 67.6667,280.167 80.8333,299.833 94,319.5C 110.526,338.377 130.526,352.044 154,360.5C 154.497,362.81 154.663,365.143 154.5,367.5C 134.027,362.098 116.027,352.265 100.5,338C 95,331.833 89.5,325.667 84,319.5C 74.1672,305.172 64.8339,290.505 56,275.5C 49.7449,269.917 44.2449,263.75 39.5,257C 40.2718,255.779 41.2718,254.779 42.5,254C 51.5979,250.848 60.9312,249.848 70.5,251C 89.5804,252.317 108.08,256.15 126,262.5C 126.667,261.5 126.667,260.5 126,259.5C 121.473,251.779 117.473,243.779 114,235.5C 109.222,220.724 105.222,205.724 102,190.5C 98.9,180.746 94.9,171.412 90,162.5C 89.2797,160.888 89.4464,159.388 90.5,158C 94.1667,157.333 97.8333,157.333 101.5,158C 107.442,159.87 113.442,161.536 119.5,163C 135.319,169.413 150.653,176.58 165.5,184.5C 166.693,158.928 173.36,134.928 185.5,112.5C 183.648,103.868 181.981,95.2017 180.5,86.5C 180.577,84.701 181.077,83.0344 182,81.5C 196.5,71.6667 211,61.8333 225.5,52C 234.866,52.1165 243.866,54.1165 252.5,58C 251.672,58.9147 250.672,59.5814 249.5,60C 246.833,60.1667 244.167,60.3333 241.5,60.5C 236.391,60.3709 231.391,59.8709 226.5,59C 215.56,69.1363 203.56,77.803 190.5,85C 189.707,86.0852 189.04,87.2519 188.5,88.5C 190.952,94.402 193.118,100.402 195,106.5C 196.236,115.251 197.903,123.918 200,132.5C 203.779,137.723 206.779,143.39 209,149.5C 209.667,153.833 209.667,158.167 209,162.5C 206.804,167.42 204.804,172.42 203,177.5C 202.333,180.5 202.333,183.5 203,186.5C 213.323,202.813 222.323,219.813 230,237.5C 231.799,246.118 231.965,254.784 230.5,263.5C 230.833,264.167 231.167,264.833 231.5,265.5C 239.483,263.035 245.983,258.368 251,251.5C 252.608,248.228 254.608,245.228 257,242.5C 257.755,245.303 257.422,247.97 256,250.5C 252.673,256.307 248.506,261.474 243.5,266C 221.873,279.292 203.04,295.792 187,315.5C 180.906,325.449 176.572,336.116 174,347.5C 173.481,360.523 173.481,373.523 174,386.5C 165.95,373.196 163.616,358.863 167,343.5C 170.045,327.741 177.045,314.075 188,302.5C 199.732,291.437 210.732,279.771 221,267.5C 225.968,255.497 225.468,243.83 219.5,232.5 Z"/></g>
<g><path style="opacity:1" fill="#e0d9da" d="M 225.5,75.5 C 230.254,74.5432 233.587,76.2098 235.5,80.5C 234.619,81.9705 233.286,82.8038 231.5,83C 218.759,83.0457 215.093,88.7124 220.5,100C 216.525,101.379 213.691,100.213 212,96.5C 209.826,89.0362 211.993,83.2029 218.5,79C 220.925,77.7874 223.259,76.6207 225.5,75.5 Z"/></g>
<g><path style="opacity:1" fill="#e3dcdd" d="M 246.5,81.5 C 261.215,82.5436 270.549,90.2102 274.5,104.5C 274.183,107.655 272.517,108.822 269.5,108C 267.377,104.049 264.711,100.549 261.5,97.5C 253.038,107.113 242.371,111.947 229.5,112C 228.167,114.333 226.833,116.667 225.5,119C 221.168,119.149 219.501,116.983 220.5,112.5C 221.276,95.4009 229.943,85.0676 246.5,81.5 Z"/></g>
<g><path style="opacity:1" fill="#34181e" d="M 249.5,88.5 C 251.714,88.2907 253.381,89.124 254.5,91C 249.301,100.252 241.301,104.752 230.5,104.5C 230.104,101.956 230.771,99.7889 232.5,98C 238.229,94.8057 243.896,91.639 249.5,88.5 Z"/></g>
<g><path style="opacity:1" fill="#e5dedf" d="M 312.5,107.5 C 314.193,108.475 315.693,109.808 317,111.5C 330.321,135.315 337.487,160.982 338.5,188.5C 361.101,173.495 385.768,162.995 412.5,157C 415.347,156.056 417.847,156.556 420,158.5C 418.478,164.889 415.811,170.889 412,176.5C 410.973,180.608 409.64,184.608 408,188.5C 405.096,204.448 401.096,220.115 396,235.5C 392.057,244.383 387.89,253.05 383.5,261.5C 402.023,255.453 421.023,251.787 440.5,250.5C 448.237,250.712 455.904,251.545 463.5,253C 466.234,253.573 468.234,255.073 469.5,257.5C 460.86,266.65 452.694,276.317 445,286.5C 435.914,300.34 426.581,314.007 417,327.5C 389.279,359.772 354.113,374.605 311.5,372C 300.951,369.707 290.951,366.041 281.5,361C 278.022,358.85 274.855,356.35 272,353.5C 271.014,351.075 271.681,349.409 274,348.5C 297.928,363.717 323.761,367.884 351.5,361C 379.153,352.266 401.32,336.099 418,312.5C 427.506,297.487 437.506,282.82 448,268.5C 450.006,265.328 452.506,262.662 455.5,260.5C 429.179,257.855 403.846,261.689 379.5,272C 359.338,285.582 339.004,298.915 318.5,312C 312.435,315.699 306.102,318.866 299.5,321.5C 298.048,318.718 298.381,316.218 300.5,314C 324.325,300.836 346.492,285.336 367,267.5C 370.304,263.525 373.637,259.525 377,255.5C 382.372,247.422 386.706,238.756 390,229.5C 393.982,214.241 397.648,198.907 401,183.5C 403.909,178.044 405.909,172.378 407,166.5C 383.68,172.489 362.18,182.323 342.5,196C 324.762,210.652 311.262,228.485 302,249.5C 297.74,244.833 297.407,239.833 301,234.5C 303.079,230.007 305.412,225.674 308,221.5C 315.379,213.123 322.379,204.456 329,195.5C 331.662,167.15 325.662,140.816 311,116.5C 310.403,113.319 310.903,110.319 312.5,107.5 Z"/></g>
<g><path style="opacity:1" fill="#e5dedf" d="M 250.5,130.5 C 254.167,131.167 257.833,131.833 261.5,132.5C 260.717,136.948 258.05,139.281 253.5,139.5C 247.712,138.023 242.545,135.356 238,131.5C 235.333,138.833 232.667,146.167 230,153.5C 224.058,159.707 221.725,158.707 223,150.5C 224.608,147.618 225.941,144.618 227,141.5C 228.346,133.751 230.013,126.085 232,118.5C 233.868,117.328 235.702,117.495 237.5,119C 240.138,124.808 244.472,128.642 250.5,130.5 Z"/></g>
<g><path style="opacity:1" fill="#8e888a" d="M 250.5,130.5 C 254.555,130.176 258.555,130.509 262.5,131.5C 262.376,132.107 262.043,132.44 261.5,132.5C 257.833,131.833 254.167,131.167 250.5,130.5 Z"/></g>
<g><path style="opacity:1" fill="#946894" d="M 304.5,133.5 C 307.365,136.19 309.531,139.523 311,143.5C 315.713,156.778 317.713,170.445 317,184.5C 315.501,190.499 313.168,196.166 310,201.5C 302.421,211.658 295.088,221.991 288,232.5C 282.667,229.167 277.333,225.833 272,222.5C 270.064,209.767 271.731,197.433 277,185.5C 281.662,175.501 287.329,166.167 294,157.5C 298.343,149.819 301.843,141.819 304.5,133.5 Z"/></g>
<g><path style="opacity:1" fill="#956b96" d="M 194.5,137.5 C 198.286,144.758 201.286,152.425 203.5,160.5C 200.872,165.625 198.039,170.625 195,175.5C 193.21,185.581 196.21,193.914 204,200.5C 207.316,212.131 212.483,222.797 219.5,232.5C 217.834,233.666 216.167,233.666 214.5,232.5C 212.667,230.167 210.833,227.833 209,225.5C 203.756,216.017 197.756,207.017 191,198.5C 185.346,186.675 184.012,174.342 187,161.5C 188.203,153.06 190.703,145.06 194.5,137.5 Z"/></g>
<g><path style="opacity:1" fill="#946994" d="M 123.5,187.5 C 148.745,196.2 168.911,211.534 184,233.5C 191.866,246.874 196.533,261.207 198,276.5C 194.5,280 191,283.5 187.5,287C 168.06,277.91 152.56,264.077 141,245.5C 130.33,227.673 124.497,208.34 123.5,187.5 Z"/></g>
<g><path style="opacity:1" fill="#946995" d="M 383.5,187.5 C 384.5,187.5 385.5,187.5 386.5,187.5C 381.536,238.445 355.536,273.778 308.5,293.5C 307.104,270.196 313.271,249.196 327,230.5C 334.129,221.037 342.296,212.537 351.5,205C 361.883,198.497 372.55,192.664 383.5,187.5 Z"/></g>
<g><path style="opacity:1" fill="#ded7d8" d="M 259.5,263.5 C 260.993,264.312 261.66,265.645 261.5,267.5C 259.494,279.693 253.494,289.526 243.5,297C 227.345,308.58 210.678,319.414 193.5,329.5C 193.167,329.167 192.833,328.833 192.5,328.5C 204.245,318.121 216.911,308.955 230.5,301C 244.905,292.103 254.572,279.603 259.5,263.5 Z"/></g>
<g><path style="opacity:1" fill="#e1dbdc" d="M 274.5,271.5 C 275.117,271.611 275.617,271.944 276,272.5C 277.428,283.55 274.428,293.217 267,301.5C 263.133,305.702 258.967,309.535 254.5,313C 242.993,319.588 231.326,325.921 219.5,332C 209.377,338.456 200.877,346.623 194,356.5C 191.534,361.232 189.867,366.232 189,371.5C 188,381.833 187,392.167 186,402.5C 182.737,397.537 181.237,392.037 181.5,386C 181.618,370.336 186.118,356.169 195,343.5C 210.779,331.059 227.613,320.226 245.5,311C 260.725,301.938 270.392,288.771 274.5,271.5 Z"/></g>
<g><path style="opacity:1" fill="#946995" d="M 424.5,272.5 C 425.5,272.5 426.5,272.5 427.5,272.5C 413.761,306.15 390.428,330.65 357.5,346C 341.604,352.177 325.271,353.843 308.5,351C 299.195,349.014 291.195,344.681 284.5,338C 292.002,335.629 299.668,333.629 307.5,332C 309.833,331 312.167,330 314.5,329C 338.128,313.18 362.128,297.847 386.5,283C 399.103,278.852 411.77,275.352 424.5,272.5 Z"/></g>
<g><path style="opacity:1" fill="#946995" d="M 81.5,273.5 C 114.548,277.359 142.881,290.859 166.5,314C 160.769,323.422 157.103,333.589 155.5,344.5C 147.264,343.389 139.597,340.556 132.5,336C 112.808,322.977 97.3079,306.143 86,285.5C 83.6464,281.798 82.1464,277.798 81.5,273.5 Z"/></g>
<g><path style="opacity:1" fill="#e7e0e1" d="M 229.5,419.5 C 203.521,421.491 177.188,422.158 150.5,421.5C 146.683,419.023 146.683,416.523 150.5,414C 173.498,413.5 196.498,413.333 219.5,413.5C 217.863,399.744 220.697,387.077 228,375.5C 232.833,370 237.667,364.5 242.5,359C 247.731,354.469 253.231,350.302 259,346.5C 259.667,347.5 259.667,348.5 259,349.5C 251.242,360.014 243.242,370.347 235,380.5C 225.988,392.486 224.155,405.486 229.5,419.5 Z"/></g>
<g><path style="opacity:1" fill="#e1dbdb" d="M 247.5,378.5 C 248.097,378.735 248.43,379.235 248.5,380C 244.409,391.161 244.742,402.161 249.5,413C 267.167,413.333 284.833,413.667 302.5,414C 306.065,416.178 306.399,418.844 303.5,422C 284.5,422.667 265.5,422.667 246.5,422C 239.135,411.03 237.635,399.196 242,386.5C 244.054,383.953 245.887,381.286 247.5,378.5 Z"/></g>
<g><path style="opacity:1" fill="#e5dedf" d="M 130.5,390.5 C 141.172,390.333 151.839,390.5 162.5,391C 165.941,392.258 167.274,394.758 166.5,398.5C 154.495,398.667 142.495,398.5 130.5,398C 127.901,395.421 127.901,392.921 130.5,390.5 Z"/></g>
<g><path style="opacity:1" fill="#e4ddde" d="M 264.5,390.5 C 302.835,390.333 341.168,390.5 379.5,391C 383.815,393.169 384.148,395.503 380.5,398C 341.833,398.667 303.167,398.667 264.5,398C 261.88,395.441 261.88,392.941 264.5,390.5 Z"/></g>
<g><path style="opacity:1" fill="#e0dadb" d="M 321.5,413.5 C 334.171,413.333 346.838,413.5 359.5,414C 362.07,416.718 362.07,419.385 359.5,422C 346.833,422.667 334.167,422.667 321.5,422C 318.899,419.17 318.899,416.337 321.5,413.5 Z"/></g>
<g><path style="opacity:1" fill="#bab2b5" d="M 229.5,419.5 C 230.404,420.209 230.737,421.209 230.5,422.5C 203.661,422.831 176.995,422.498 150.5,421.5C 177.188,422.158 203.521,421.491 229.5,419.5 Z"/></g>
<g><path style="opacity:1" fill="#e2dbdc" d="M 245.5,436.5 C 250.844,436.334 256.177,436.501 261.5,437C 264.917,439.321 265.25,441.988 262.5,445C 256.96,445.764 251.46,445.597 246,444.5C 242.939,442.11 242.773,439.443 245.5,436.5 Z"/></g>
<g><path style="opacity:1" fill="#ded7d8" d="M 282.5,436.5 C 289.327,435.174 292.494,437.84 292,444.5C 286.29,447.856 281.79,446.689 278.5,441C 279.344,438.993 280.677,437.493 282.5,436.5 Z"/></g>
<g><path style="opacity:1" fill="#e5dfdf" d="M 184.5,436.5 C 198.837,436.333 213.171,436.5 227.5,437C 231.424,440.182 231.424,443.182 227.5,446C 212.495,446.25 197.495,445.917 182.5,445C 179.967,441.53 180.633,438.696 184.5,436.5 Z"/></g>
<g><path style="opacity:1" fill="#e1dbdb" d="M 307.5,436.5 C 313.509,436.334 319.509,436.501 325.5,437C 328.932,439.367 329.265,442.034 326.5,445C 319.833,445.667 313.167,445.667 306.5,445C 303.731,441.806 304.064,438.973 307.5,436.5 Z"/></g>
<g><path style="opacity:1" fill="#e8e1e2" d="M 235.5,459.5 C 249.504,459.333 263.504,459.5 277.5,460C 279.958,465.327 278.291,467.993 272.5,468C 261.833,468.667 251.167,468.667 240.5,468C 234.637,467.8 232.97,464.967 235.5,459.5 Z"/></g>
</svg>
